<svg id="alzheimer" enable-background="new 0 0 300 300" height="100" viewBox="0 0 300 300" width="100" xmlns="http://www.w3.org/2000/svg"><g><path d="m254.093 77.656c-1.023 0-2.047-.391-2.828-1.172l-11.312-11.312c-1.562-1.562-1.562-4.094 0-5.656s4.094-1.562 5.656 0l11.313 11.312c1.562 1.562 1.562 4.094 0 5.656-.782.782-1.806 1.172-2.829 1.172z" fill="#4c241d"/><path d="m242.78 77.656c-1.023 0-2.047-.391-2.828-1.172-1.562-1.562-1.562-4.094 0-5.656l11.312-11.312c1.562-1.562 4.094-1.562 5.656 0s1.562 4.094 0 5.656l-11.313 11.312c-.78.782-1.803 1.172-2.827 1.172z" fill="#4c241d"/><path d="m77.007 94.688c-2.004 0-3.986-.492-5.803-1.461-2.906-1.555-5.033-4.148-5.988-7.305-.955-3.152-.627-6.492.928-9.398s4.146-5.031 7.301-5.988c6.508-1.969 13.412 1.719 15.387 8.23.955 3.152.627 6.492-.928 9.398s-4.146 5.031-7.301 5.988c-1.184.36-2.393.536-3.596.536zm.014-16.684c-.416 0-.838.062-1.256.188-1.107.336-2.02 1.082-2.566 2.105s-.662 2.195-.326 3.305 1.084 2.023 2.105 2.57c1.025.547 2.199.656 3.305.324 2.289-.695 3.586-3.121 2.893-5.41-.569-1.871-2.294-3.082-4.155-3.082z" fill="#4c241d"/><circle cx="134.437" cy="166" fill="#efefd2" r="86"/><g><path d="m202.661 200.829-20.047-9.112h-60.354l-20.047 9.112c-13.242 6.019-21.776 19.449-21.776 34.269v32.902h144v-32.902c0-14.82-8.535-28.25-21.776-34.269z" fill="#9dc1e4"/><path d="m224.437 272h-144c-2.209 0-4-1.789-4-4v-32.902c0-16.371 9.467-31.25 24.119-37.91l20.049-9.109c.52-.238 1.084-.359 1.654-.359h60.354c.57 0 1.137.121 1.656.359l20.047 9.109c14.652 6.66 24.121 21.543 24.121 37.91v32.902c0 2.211-1.789 4-4 4zm-140-8h136v-28.902c0-13.238-7.629-25.262-19.434-30.629l-19.258-8.75h-58.619l-19.26 8.75c-11.803 5.367-19.43 17.387-19.43 30.629v28.902z" fill="#4c241d"/></g><circle cx="46.437" cy="206" fill="#4c241d" r="4.529"/><circle cx="62.437" cy="178" fill="#4c241d" r="4.529"/><g><path d="m136.437 176s.091 8.808.123 9.217l-14.3 6.5 30.177 48.283 30.177-48.283-14.3-6.5c.031-.409.123-9.217.123-9.217" fill="#f4aeab"/><path d="m152.437 244c-1.379 0-2.66-.711-3.391-1.879l-30.18-48.281c-.609-.977-.77-2.172-.438-3.277.332-1.102 1.125-2.008 2.176-2.484l11.908-5.414c-.018-1.391-.043-3.477-.076-6.621-.023-2.211 1.75-4.02 3.959-4.043 2.146.145 4.018 1.75 4.041 3.957 0 .004.084 8.238.117 9.051.066 1.625-.857 3.18-2.34 3.852l-10.143 4.613 24.365 38.98 24.363-38.984-10.141-4.609c-1.527-.695-2.461-2.27-2.332-3.945.027-.719.109-8.953.109-8.953l8 .078c-.031 3.145-.059 5.234-.074 6.625l11.906 5.414c1.047.477 1.84 1.383 2.172 2.484.336 1.105.176 2.301-.438 3.277l-30.176 48.281c-.727 1.167-2.008 1.878-3.387 1.878z" fill="#4c241d"/></g><g><path d="m104.437 118c-5.644 0-10.196 4.676-9.993 10.365.114 3.199 2.081 6.09 4.734 7.88 3.217 2.171 5.98 2.017 8.431 1.192 3.968 19.359 18.022 35.548 37.427 41.794 5.563 1.791 11.581 1.62 17.141-.182l1.775-.575c19.093-6.188 33.023-22.039 37.173-41.079 2.441.861 5.222 1.012 8.371-.95 2.549-1.588 4.495-4.194 4.862-7.174.75-6.09-3.981-11.27-9.921-11.27" fill="#f4aeab"/><path d="m153.191 184.5c-3.199 0-6.352-.484-9.383-1.461-19.197-6.18-33.93-21.711-39.219-41.035-2.566.02-5.174-.77-7.65-2.441-3.91-2.641-6.34-6.77-6.494-11.051-.135-3.844 1.256-7.477 3.92-10.234 2.662-2.758 6.238-4.277 10.072-4.277 2.209 0 4 1.789 4 4s-1.791 4-4 4c-1.643 0-3.176.652-4.316 1.832-1.143 1.184-1.738 2.742-1.68 4.395.061 1.703 1.201 3.508 2.973 4.703 1.955 1.324 3.334 1.254 4.92.715 1.092-.355 2.277-.242 3.27.324.994.574 1.693 1.543 1.924 2.664 3.738 18.234 17.047 33.098 34.734 38.789 4.633 1.496 9.715 1.434 14.688-.176l1.766-.578c17.387-5.633 30.605-20.242 34.5-38.125.246-1.121.961-2.086 1.965-2.645 1-.555 2.199-.668 3.277-.273 1.809.641 3.238.477 4.926-.574 1.68-1.051 2.805-2.645 3.008-4.27.215-1.762-.301-3.449-1.457-4.754-1.137-1.289-2.777-2.027-4.496-2.027-2.211 0-4-1.789-4-4s1.789-4 4-4c4.008 0 7.832 1.723 10.492 4.727 2.652 3.004 3.895 7.023 3.398 11.031-.492 4-3.004 7.766-6.715 10.082-2.418 1.504-4.859 2.246-7.527 2.152-5.441 18.934-20.051 34.176-38.898 40.285l-1.769.578c-3.394 1.097-6.835 1.644-10.229 1.644z" fill="#4c241d"/></g><g fill="#4c241d"><circle cx="174.437" cy="134" r="4"/><circle cx="134.437" cy="134" r="4"/><path d="m152.437 271.547c-2.211 0-4-1.789-4-4v-27.547c0-2.211 1.789-4 4-4s4 1.789 4 4v27.547c0 2.211-1.789 4-4 4z"/><path d="m204.437 104c-2.211 0-4-1.789-4-4v-12c0-2.211 1.789-4 4-4s4 1.789 4 4v12c0 2.211-1.789 4-4 4z"/><path d="m104.437 104c-2.209 0-4-1.789-4-4v-16c0-2.211 1.791-4 4-4s4 1.789 4 4v16c0 2.211-1.791 4-4 4z"/><path d="m104.437 72c-2.209 0-4-1.789-4-4v-8c0-2.211 1.791-4 4-4s4 1.789 4 4v8c0 2.211-1.791 4-4 4z"/><path d="m120.437 72c-2.209 0-4-1.789-4-4v-16c0-2.211 1.791-4 4-4s4 1.789 4 4v16c0 2.211-1.791 4-4 4z"/><path d="m204.437 76c-2.211 0-4-1.789-4-4v-16c0-2.211 1.789-4 4-4s4 1.789 4 4v16c0 2.211-1.789 4-4 4z"/><path d="m132.437 48c-2.209 0-4-1.789-4-4v-12c0-2.211 1.791-4 4-4s4 1.789 4 4v12c0 2.211-1.791 4-4 4z"/><path d="m132.437 108c-2.209 0-4-1.789-4-4v-36c0-2.211 1.791-4 4-4s4 1.789 4 4v36c0 2.211-1.791 4-4 4z"/><path d="m160.437 108c-2.211 0-4-1.789-4-4v-28c0-2.211 1.789-4 4-4s4 1.789 4 4v28c0 2.211-1.789 4-4 4z"/><path d="m144.437 92c-2.209 0-4-1.789-4-4v-40c0-2.211 1.791-4 4-4 2.211 0 4 1.789 4 4v40c0 2.211-1.789 4-4 4z"/><path d="m176.437 92c-2.211 0-4-1.789-4-4v-40c0-2.211 1.789-4 4-4s4 1.789 4 4v40c0 2.211-1.789 4-4 4z"/><path d="m188.437 108c-2.211 0-4-1.789-4-4v-40c0-2.211 1.789-4 4-4s4 1.789 4 4v40c0 2.211-1.789 4-4 4z"/><path d="m160.437 64c-2.211 0-4-1.789-4-4v-20c0-2.211 1.789-4 4-4s4 1.789 4 4v20c0 2.211-1.789 4-4 4z"/><path d="m224.437 200c-2.211 0-4-1.789-4-4v-20c0-2.211 1.789-4 4-4s4 1.789 4 4v20c0 2.211-1.789 4-4 4z"/><path d="m224.437 160c-2.211 0-4-1.789-4-4v-4c0-2.211 1.789-4 4-4s4 1.789 4 4v4c0 2.211-1.789 4-4 4z"/><path d="m208.437 184c-2.211 0-4-1.789-4-4v-20c0-2.211 1.789-4 4-4s4 1.789 4 4v20c0 2.211-1.789 4-4 4z"/><path d="m192.437 184c-2.211 0-4-1.789-4-4v-4c0-2.211 1.789-4 4-4s4 1.789 4 4v4c0 2.211-1.789 4-4 4z"/><path d="m96.437 192c-2.209 0-4-1.789-4-4v-32c0-2.211 1.791-4 4-4s4 1.789 4 4v32c0 2.211-1.791 4-4 4z"/><path d="m80.437 200c-2.209 0-4-1.789-4-4v-16c0-2.211 1.791-4 4-4s4 1.789 4 4v16c0 2.211-1.791 4-4 4z"/><path d="m108.437 184c-2.209 0-4-1.789-4-4v-4c0-2.211 1.791-4 4-4s4 1.789 4 4v4c0 2.211-1.791 4-4 4z"/></g></g></svg>